<?xml version="1.0" standalone="no"?>
<!DOCTYPE svg PUBLIC "-//W3C//DTD SVG 1.1//EN" "http://www.w3.org/Graphics/SVG/1.1/DTD/svg11.dtd">
<!--Generator: Xara Xtreme (www.xara.com), SVG filter version: 1.0.0.13-->
<svg stroke-width="0.501" stroke-linejoin="bevel" fill-rule="evenodd" xmlns:xlink="http://www.w3.org/1999/xlink" xmlns="http://www.w3.org/2000/svg" version="1.1" overflow="visible" width="60pt" height="60pt" viewBox="0 0 60 60">
 <defs>
  <marker id="DefaultArrow2" markerUnits="strokeWidth" viewBox="0 0 1 1" markerWidth="1" markerHeight="1" overflow="visible" orient="auto">
   <!-- REF_ARROW_STRAIGHT (-2) -->
   <g transform="scale(0.0092592592)">
    <!-- 1/108 -->
    <path d="M -9 54 L -9 -54 L 117 0 z"/>
   </g>
  </marker>
  <marker id="DefaultArrow3" markerUnits="strokeWidth" viewBox="0 0 1 1" markerWidth="1" markerHeight="1" overflow="visible" orient="auto">
   <!-- REF_ARROW_ANGLED -->
   <g transform="scale(0.0092592592)">
    <path d="M -27 54 L -9 0 L -27 -54 L 135 0 z"/>
   </g>
  </marker>
  <marker id="DefaultArrow4" markerUnits="strokeWidth" viewBox="0 0 1 1" markerWidth="1" markerHeight="1" overflow="visible" orient="auto">
   <!-- REF_ARROW_ROUNDED -->
   <g transform="scale(0.0092592592)">
    <path d="M -9,0 L -9,-45 C -9,-51.708 2.808,-56.580 9,-54 L 117,-9 C 120.916,-7.369 126.000,-4.242 126,0 C 126,4.242 120.916,7.369 117,9 L 9,54 C 2.808,56.580 -9,51.708 -9,45 z"/>
   </g>
  </marker>
  <marker id="DefaultArrow5" markerUnits="strokeWidth" viewBox="0 0 1 1" markerWidth="1" markerHeight="1" overflow="visible" orient="auto">
   <!-- REF_ARROW_SPOT -->
   <g transform="scale(0.0092592592)">
    <path d="M -54, 0 C -54,29.807 -29.807,54 0,54 C 29.807,54 54,29.807 54,0 C 54,-29.807 29.807,-54 0,-54 C -29.807,-54 -54,-29.807 -54,0 z"/>
   </g>
  </marker>
  <marker id="DefaultArrow6" markerUnits="strokeWidth" viewBox="0 0 1 1" markerWidth="1" markerHeight="1" overflow="visible" orient="auto">
   <!-- REF_ARROW_DIAMOND -->
   <g transform="scale(0.0092592592)">
    <path d="M -63,0 L 0,63 L 63,0 L 0,-63 z"/>
   </g>
  </marker>
  <marker id="DefaultArrow7" markerUnits="strokeWidth" viewBox="0 0 1 1" markerWidth="1" markerHeight="1" overflow="visible" orient="auto">
   <!-- REF_ARROW_FEATHER -->
   <g transform="scale(0.0092592592)">
    <path d="M 18,-54 L 108,-54 L 63,0 L 108,54 L 18, 54 L -36,0 z"/>
   </g>
  </marker>
  <marker id="DefaultArrow8" markerUnits="strokeWidth" viewBox="0 0 1 1" markerWidth="1" markerHeight="1" overflow="visible" orient="auto">
   <!-- REF_ARROW_FEATHER2 -->
   <g transform="scale(0.0092592592)">
    <path d="M -36,0 L 18,-54 L 54,-54 L 18,-18 L 27,-18 L 63,-54 L 99,-54 L 63,-18 L 72,-18 L 108,-54 L 144,-54 L 90,0 L 144,54 L 108,54 L 72,18 L 63,18 L 99,54 L 63,54 L 27,18 L 18,18 L 54,54 L 18,54 z"/>
   </g>
  </marker>
  <marker id="DefaultArrow9" markerUnits="strokeWidth" viewBox="0 0 1 1" markerWidth="1" markerHeight="1" overflow="visible" orient="auto">
   <!-- REF_ARROW_HOLLOWDIAMOND -->
   <g transform="scale(0.0092592592)">
    <path d="M 0,45 L -45,0 L 0, -45 L 45, 0 z M 0, 63 L-63, 0 L 0, -63 L 63, 0 z"/>
   </g>
  </marker>
  <filter id="StainedFilter">
   <feBlend mode="multiply" in2="BackgroundImage" in="SourceGraphic" result="blend"/>
   <feComposite in="blend" in2="SourceAlpha" operator="in" result="comp"/>
  </filter>
  <filter id="BleachFilter">
   <feBlend mode="screen" in2="BackgroundImage" in="SourceGraphic" result="blend"/>
   <feComposite in="blend" in2="SourceAlpha" operator="in" result="comp"/>
  </filter>
  <filter id="InvertTransparencyBitmapFilter">
   <feComponentTransfer>
    <feFuncR type="gamma" amplitude="1.055" exponent=".416666666" offset="-0.055"/>
    <feFuncG type="gamma" amplitude="1.055" exponent=".416666666" offset="-0.055"/>
    <feFuncB type="gamma" amplitude="1.055" exponent=".416666666" offset="-0.055"/>
   </feComponentTransfer>
   <feComponentTransfer>
    <feFuncR type="linear" slope="-1" intercept="1"/>
    <feFuncG type="linear" slope="-1" intercept="1"/>
    <feFuncB type="linear" slope="-1" intercept="1"/>
    <feFuncA type="linear" slope="1" intercept="0"/>
   </feComponentTransfer>
   <feComponentTransfer>
    <feFuncR type="gamma" amplitude="1" exponent="2.4" offset="0"/>
    <feFuncG type="gamma" amplitude="1" exponent="2.4" offset="0"/>
    <feFuncB type="gamma" amplitude="1" exponent="2.4" offset="0"/>
   </feComponentTransfer>
  </filter>
 </defs>
 <g id="Document" fill="none" stroke="black" font-family="Times New Roman" font-size="16" transform="scale(1 -1)">
  <g id="Spread" transform="translate(0 -60)">
   <g id="Layer 1">
    <g id="Group" stroke-linecap="round">
     <path d="M 0,60 L 0,0.002 L 60,0.002 L 60,60 L 0,60 Z" stroke-linejoin="miter" stroke="none" stroke-width="0.562" marker-start="none" marker-end="none" stroke-miterlimit="79.8403193612775"/>
     <g id="Group_1" stroke-linejoin="round" stroke-width="1.5" stroke="#287bd1" stroke-miterlimit="79.8403193612775">
      <path d="M 30.181,37.881 C 30.11,37.929 30.039,37.977 29.969,38.026 C 30.149,38.744 30.377,39.466 30.756,40.123 C 31.142,40.791 31.666,41.359 32.209,41.883 L 34.751,40.414 C 35.718,41.354 36.914,42.059 38.248,42.437 L 38.249,45.37 C 38.974,45.578 39.727,45.748 40.499,45.748 C 41.27,45.748 42.024,45.578 42.749,45.37 L 42.749,42.437 C 44.081,42.059 45.278,41.353 46.245,40.413 L 48.789,41.882 C 49.331,41.358 49.855,40.79 50.241,40.122 C 50.627,39.454 50.856,38.717 51.039,37.985 L 48.499,36.518 C 48.662,35.872 48.749,35.195 48.749,34.499 C 48.749,33.801 48.662,33.124 48.499,32.477 L 51.039,31.011 C 50.856,30.279 50.626,29.541 50.241,28.873 C 49.855,28.205 49.331,27.638 48.789,27.114 L 46.245,28.582 C 45.278,27.642 44.081,26.937 42.749,26.56 L 42.749,23.627 C 42.024,23.419 41.27,23.249 40.499,23.249 C 39.727,23.249 38.974,23.419 38.249,23.627 L 38.248,26.56 C 37.724,26.708 37.223,26.906 36.748,27.149" fill="none"/>
      <path d="M 40.498,38.248 C 42.567,38.248 44.248,36.567 44.248,34.498 C 44.248,32.429 42.567,30.748 40.498,30.748 C 38.429,30.748 36.748,32.429 36.748,34.498 C 36.748,36.567 38.429,38.248 40.498,38.248 Z" marker-start="none" marker-end="none"/>
      <path d="M 22.498,34.498 C 26.637,34.498 29.998,31.137 29.998,26.998 C 29.998,22.859 26.637,19.498 22.498,19.498 C 18.359,19.498 14.998,22.859 14.998,26.998 C 14.998,31.137 18.359,34.498 22.498,34.498 Z" marker-start="none" marker-end="none"/>
      <path d="M 22.498,29.248 C 23.74,29.248 24.748,28.24 24.748,26.998 C 24.748,25.756 23.74,24.748 22.498,24.748 C 21.256,24.748 20.248,25.756 20.248,26.998 C 20.248,28.24 21.256,29.248 22.498,29.248 Z" marker-start="none" marker-end="none"/>
      <g id="Group_2">
       <g id="Group_3">
        <g id="Group_4">
         <path d="M 20.25,13.128 L 20.249,15.971 C 18.812,16.262 17.474,16.828 16.292,17.61 L 14.282,15.6 C 13.622,15.966 12.97,16.378 12.423,16.924 C 11.879,17.469 11.466,18.122 11.1,18.782 L 13.111,20.793 C 12.328,21.974 11.762,23.312 11.471,24.75 L 8.628,24.75 C 8.42,25.475 8.25,26.228 8.25,27.001 C 8.25,27.771 8.42,28.525 8.628,29.25 L 11.472,29.25 C 11.764,30.686 12.33,32.023 13.113,33.204 L 11.1,35.218 C 11.466,35.878 11.878,36.53 12.424,37.077 C 12.969,37.621 13.622,38.034 14.282,38.4 L 16.296,36.385 C 17.477,37.167 18.813,37.732 20.249,38.024 L 20.25,40.872 C 20.975,41.08 21.728,41.25 22.501,41.25 C 23.271,41.25 24.025,41.08 24.75,40.872 L 24.75,38.024 C 26.184,37.731 27.52,37.165 28.701,36.383 L 30.718,38.4 C 31.378,38.034 32.03,37.622 32.577,37.076 C 33.121,36.531 33.534,35.878 33.9,35.218 L 31.883,33.201 C 32.665,32.02 33.231,30.684 33.523,29.25 L 36.372,29.25 C 36.58,28.525 36.75,27.772 36.75,26.999 C 36.75,26.229 36.58,25.475 36.372,24.75 L 33.524,24.75 C 33.232,23.314 32.667,21.977 31.885,20.796 L 33.9,18.782 C 33.534,18.122 33.122,17.47 32.576,16.923 C 32.031,16.379 31.378,15.966 30.718,15.6 L 28.704,17.613 C 27.523,16.829 26.186,16.263 24.75,15.971 L 24.75,13.128 C 24.025,12.92 23.272,12.75 22.499,12.75 C 21.729,12.75 20.975,12.92 20.25,13.128 Z" marker-start="none" marker-end="none"/>
        </g>
       </g>
      </g>
     </g>
    </g>
   </g>
  </g>
 </g>
</svg>
