<?xml version="1.0" standalone="no"?>
<!DOCTYPE svg PUBLIC "-//W3C//DTD SVG 1.1//EN" "http://www.w3.org/Graphics/SVG/1.1/DTD/svg11.dtd">
<!--Generator: Xara Xtreme (www.xara.com), SVG filter version: 1.0.0.13-->
<svg stroke-width="0.501" stroke-linejoin="bevel" fill-rule="evenodd" xmlns:xlink="http://www.w3.org/1999/xlink" xmlns="http://www.w3.org/2000/svg" version="1.1" overflow="visible" width="60pt" height="60pt" viewBox="0 0 60 60">
 <defs>
  <marker id="DefaultArrow2" markerUnits="strokeWidth" viewBox="0 0 1 1" markerWidth="1" markerHeight="1" overflow="visible" orient="auto">
   <!-- REF_ARROW_STRAIGHT (-2) -->
   <g transform="scale(0.0092592592)">
    <!-- 1/108 -->
    <path d="M -9 54 L -9 -54 L 117 0 z"/>
   </g>
  </marker>
  <marker id="DefaultArrow3" markerUnits="strokeWidth" viewBox="0 0 1 1" markerWidth="1" markerHeight="1" overflow="visible" orient="auto">
   <!-- REF_ARROW_ANGLED -->
   <g transform="scale(0.0092592592)">
    <path d="M -27 54 L -9 0 L -27 -54 L 135 0 z"/>
   </g>
  </marker>
  <marker id="DefaultArrow4" markerUnits="strokeWidth" viewBox="0 0 1 1" markerWidth="1" markerHeight="1" overflow="visible" orient="auto">
   <!-- REF_ARROW_ROUNDED -->
   <g transform="scale(0.0092592592)">
    <path d="M -9,0 L -9,-45 C -9,-51.708 2.808,-56.580 9,-54 L 117,-9 C 120.916,-7.369 126.000,-4.242 126,0 C 126,4.242 120.916,7.369 117,9 L 9,54 C 2.808,56.580 -9,51.708 -9,45 z"/>
   </g>
  </marker>
  <marker id="DefaultArrow5" markerUnits="strokeWidth" viewBox="0 0 1 1" markerWidth="1" markerHeight="1" overflow="visible" orient="auto">
   <!-- REF_ARROW_SPOT -->
   <g transform="scale(0.0092592592)">
    <path d="M -54, 0 C -54,29.807 -29.807,54 0,54 C 29.807,54 54,29.807 54,0 C 54,-29.807 29.807,-54 0,-54 C -29.807,-54 -54,-29.807 -54,0 z"/>
   </g>
  </marker>
  <marker id="DefaultArrow6" markerUnits="strokeWidth" viewBox="0 0 1 1" markerWidth="1" markerHeight="1" overflow="visible" orient="auto">
   <!-- REF_ARROW_DIAMOND -->
   <g transform="scale(0.0092592592)">
    <path d="M -63,0 L 0,63 L 63,0 L 0,-63 z"/>
   </g>
  </marker>
  <marker id="DefaultArrow7" markerUnits="strokeWidth" viewBox="0 0 1 1" markerWidth="1" markerHeight="1" overflow="visible" orient="auto">
   <!-- REF_ARROW_FEATHER -->
   <g transform="scale(0.0092592592)">
    <path d="M 18,-54 L 108,-54 L 63,0 L 108,54 L 18, 54 L -36,0 z"/>
   </g>
  </marker>
  <marker id="DefaultArrow8" markerUnits="strokeWidth" viewBox="0 0 1 1" markerWidth="1" markerHeight="1" overflow="visible" orient="auto">
   <!-- REF_ARROW_FEATHER2 -->
   <g transform="scale(0.0092592592)">
    <path d="M -36,0 L 18,-54 L 54,-54 L 18,-18 L 27,-18 L 63,-54 L 99,-54 L 63,-18 L 72,-18 L 108,-54 L 144,-54 L 90,0 L 144,54 L 108,54 L 72,18 L 63,18 L 99,54 L 63,54 L 27,18 L 18,18 L 54,54 L 18,54 z"/>
   </g>
  </marker>
  <marker id="DefaultArrow9" markerUnits="strokeWidth" viewBox="0 0 1 1" markerWidth="1" markerHeight="1" overflow="visible" orient="auto">
   <!-- REF_ARROW_HOLLOWDIAMOND -->
   <g transform="scale(0.0092592592)">
    <path d="M 0,45 L -45,0 L 0, -45 L 45, 0 z M 0, 63 L-63, 0 L 0, -63 L 63, 0 z"/>
   </g>
  </marker>
  <filter id="StainedFilter">
   <feBlend mode="multiply" in2="BackgroundImage" in="SourceGraphic" result="blend"/>
   <feComposite in="blend" in2="SourceAlpha" operator="in" result="comp"/>
  </filter>
  <filter id="BleachFilter">
   <feBlend mode="screen" in2="BackgroundImage" in="SourceGraphic" result="blend"/>
   <feComposite in="blend" in2="SourceAlpha" operator="in" result="comp"/>
  </filter>
  <filter id="InvertTransparencyBitmapFilter">
   <feComponentTransfer>
    <feFuncR type="gamma" amplitude="1.055" exponent=".416666666" offset="-0.055"/>
    <feFuncG type="gamma" amplitude="1.055" exponent=".416666666" offset="-0.055"/>
    <feFuncB type="gamma" amplitude="1.055" exponent=".416666666" offset="-0.055"/>
   </feComponentTransfer>
   <feComponentTransfer>
    <feFuncR type="linear" slope="-1" intercept="1"/>
    <feFuncG type="linear" slope="-1" intercept="1"/>
    <feFuncB type="linear" slope="-1" intercept="1"/>
    <feFuncA type="linear" slope="1" intercept="0"/>
   </feComponentTransfer>
   <feComponentTransfer>
    <feFuncR type="gamma" amplitude="1" exponent="2.4" offset="0"/>
    <feFuncG type="gamma" amplitude="1" exponent="2.4" offset="0"/>
    <feFuncB type="gamma" amplitude="1" exponent="2.4" offset="0"/>
   </feComponentTransfer>
  </filter>
 </defs>
 <g id="Document" fill="none" stroke="black" font-family="Times New Roman" font-size="16" transform="scale(1 -1)">
  <g id="Spread" transform="translate(0 -60)">
   <g id="Layer 1">
    <g id="Group" stroke-linecap="round">
     <path d="M 0,60 L 0,0.002 L 60,0.002 L 60,60 L 0,60 Z" stroke-linejoin="miter" stroke="none" stroke-width="0.562" marker-start="none" marker-end="none" stroke-miterlimit="79.8403193612775"/>
     <path d="M 46.876,21 C 49.152,21 51,19.151 51,16.874 C 51,14.598 49.152,12.75 46.876,12.75 C 44.599,12.75 42.75,14.598 42.75,16.874 C 42.75,19.151 44.599,21 46.876,21 Z" stroke-linejoin="round" stroke="#287bd1" stroke-width="1.5" marker-start="none" marker-end="none" stroke-miterlimit="79.8403193612775"/>
     <path d="M 46.875,18.75 C 47.91,18.75 48.75,17.91 48.75,16.875 C 48.75,15.84 47.91,15 46.875,15 C 45.84,15 45,15.84 45,16.875 C 45,17.91 45.84,18.75 46.875,18.75 Z" stroke-linejoin="round" stroke="#287bd1" stroke-width="1.5" marker-start="none" marker-end="none" stroke-miterlimit="79.8403193612775"/>
     <path d="M 11.626,21 C 13.902,21 15.75,19.151 15.75,16.874 C 15.75,14.598 13.902,12.75 11.626,12.75 C 9.349,12.75 7.5,14.598 7.5,16.874 C 7.5,19.151 9.349,21 11.626,21 Z" stroke-linejoin="round" stroke="#287bd1" stroke-width="1.5" marker-start="none" marker-end="none" stroke-miterlimit="79.8403193612775"/>
     <path d="M 11.625,18.75 C 12.66,18.75 13.5,17.91 13.5,16.875 C 13.5,15.84 12.66,15 11.625,15 C 10.59,15 9.75,15.84 9.75,16.875 C 9.75,17.91 10.59,18.75 11.625,18.75 Z" stroke-linejoin="round" stroke="#287bd1" stroke-width="1.5" marker-start="none" marker-end="none" stroke-miterlimit="79.8403193612775"/>
     <path d="M 5.25,15.75 L 5.25,16.873 C 5.25,20.392 8.108,23.25 11.627,23.25 C 15.144,23.25 18,20.392 18,16.873 L 18,15.75 L 40.5,15.75 L 40.5,16.873 C 40.5,20.392 43.358,23.25 46.877,23.25 C 50.394,23.25 53.25,20.392 53.25,16.873 L 53.25,15.75 L 55.5,15.75 C 56.846,15.75 59.25,15.904 59.25,17.25 L 59.25,20.25 C 59.25,25.071 50.384,25.876 42,27 C 37.046,29.989 34.394,33 24.75,33 C 14.354,33 11.731,30.489 6.75,27.75 L 3,27.75 C 1.18,27.75 1.621,24.424 1.5,22.5 C 1.004,22.306 0.75,21.559 0.75,21 L 0.75,18.75 C 0.75,17.5 1.452,15.75 3,15.75 L 5.25,15.75 Z" stroke-linejoin="round" stroke="#287bd1" stroke-width="1.5" marker-start="none" marker-end="none" stroke-miterlimit="79.8403193612775"/>
     <path d="M 12.624,27.072 C 13.345,28.107 14.579,29.041 15.749,29.469 C 18.057,30.265 20.207,30.75 24.75,30.75" fill="none" stroke-linejoin="round" stroke-width="1.5" stroke="#287bd1" stroke-miterlimit="79.8403193612775"/>
     <path d="M 24.75,30.75 C 32.95,30.75 35.365,28.531 39.749,25.747" fill="none" stroke-linejoin="round" stroke-width="1.5" stroke="#287bd1" stroke-miterlimit="79.8403193612775"/>
     <path d="M 59.25,20.25 L 55.5,20.25 L 54,22.5 L 57.75,22.499" fill="none" stroke-linejoin="round" stroke="#287bd1" stroke-width="1.5" stroke-miterlimit="79.8403193612775"/>
     <path d="M 12.75,26.999 L 15,25.499 L 39.75,25.5" fill="none" stroke-linejoin="round" stroke="#287bd1" stroke-width="1.5" stroke-miterlimit="79.8403193612775"/>
     <path d="M 1.5,23.25 L 4.5,23.25 L 4.5,24.75 L 2.25,27" fill="none" stroke-linejoin="round" stroke="#287bd1" stroke-width="1.5" stroke-miterlimit="79.8403193612775"/>
     <path d="M 24.75,30.749 L 24.75,25.499" fill="none" stroke-linejoin="round" stroke="#287bd1" stroke-width="1.5" stroke-miterlimit="79.8403193612775"/>
    </g>
   </g>
  </g>
 </g>
</svg>
